# Blender v2.78 (sub 0) OBJ File: ''
# www.blender.org
mtllib n-triangles.mtl
o Plane
v 0.000061 0.944269 1.812342
v 2.000061 0.944269 1.812342
v 2.000061 0.944269 -0.187658
v 0.996550 1.424992 -1.036302
v 1.984496 1.100365 -1.694932
v 0.150116 1.505736 -0.117159
v 1.227173 0.820652 2.442841
v 3.594949 0.445866 0.549722
vn 0.0000 1.0000 0.0000
vn 0.2437 0.9388 0.2437
vn 0.3657 0.9261 0.0921
vn 0.3929 0.8743 0.2850
vn 0.0000 0.9813 0.1924
vn 0.2983 0.9545 0.0000
usemtl None
s off
f 2//1 3//1 1//1
f 3//2 4//2 1//2
f 4//3 3//3 5//3
f 4//4 6//4 1//4
f 2//5 1//5 7//5
f 3//6 2//6 8//6
