# Blender v2.78 (sub 0) OBJ File: ''
# www.blender.org
mtllib topo2.mtl
o Cube.001
v 6.236981 0.389383 -2.129448
v 5.099620 0.606583 -2.045584
v 3.757303 1.152879 -1.274442
v 4.825748 0.898312 -0.944610
v 7.461627 1.077386 0.958864
v 6.782244 1.094113 0.044933
v 7.600974 0.792787 -0.699413
v 9.465269 0.374559 0.119676
v 8.371351 0.745910 0.163136
v 9.549574 0.473125 1.259125
v 8.454763 0.847244 1.326268
v 8.138342 0.982054 2.443964
v 7.983162 0.409764 2.504951
v 6.914716 0.664332 2.175118
v 8.257033 0.118036 1.403976
v 9.394395 -0.099164 1.320113
v 8.173623 0.016703 0.240844
v 9.310089 -0.197731 0.180663
v 7.445794 0.220498 -0.638427
v 6.627065 0.521824 0.105921
v 7.069896 1.236621 2.114131
v 7.263898 0.348179 1.036573
v 4.980928 1.470601 -1.005597
v 5.297349 1.335790 -2.123293
v 6.392161 0.961672 -2.190434
v 5.213938 1.234457 -3.286425
v 6.307855 0.863106 -3.329884
v 4.443561 1.281334 -4.148974
v 3.624830 1.582660 -3.404627
v 4.304214 1.565933 -2.490696
v 5.016209 0.505250 -3.208716
v 6.152676 0.290816 -3.268898
v 4.288381 0.709045 -4.087987
v 3.469651 1.010371 -3.343640
v 3.912483 1.725168 -1.335429
v 4.106484 0.836726 -2.412988
v 3.644363 0.771988 -5.136036
v 2.507002 0.989188 -5.052173
v 1.164685 1.535483 -4.281030
v 2.233130 1.280917 -3.951198
v 2.388310 1.853206 -4.012185
v 2.704731 1.718395 -5.129882
v 3.799543 1.344277 -5.197023
v 2.621320 1.617062 -6.293014
v 3.715237 1.245711 -6.336473
v 1.850942 1.663939 -7.155563
v 1.032212 1.965265 -6.411215
v 1.711595 1.948538 -5.497285
v 2.423591 0.887855 -6.215304
v 3.560057 0.673421 -6.275486
v 1.695763 1.091650 -7.094575
v 0.877033 1.392976 -6.350229
v 1.319865 2.107773 -4.342017
v 1.513866 1.219330 -5.419575
v 0.977142 1.140380 -8.138313
v -0.160219 1.357580 -8.054450
v -1.502537 1.903875 -7.283308
v -0.434091 1.649308 -6.953476
v -0.278911 2.221598 -7.014463
v 0.037510 2.086787 -8.132159
v 1.132322 1.712669 -8.199301
v -0.045901 1.985454 -9.295291
v 1.048015 1.614103 -9.338752
v -0.816279 2.032331 -10.157842
v -1.635010 2.333657 -9.413496
v -0.955626 2.316930 -8.499562
v -0.243630 1.256247 -9.217583
v 0.892836 1.041813 -9.277763
v -0.971460 1.460042 -10.096855
v -1.790189 1.761368 -9.352508
v -1.347357 2.476165 -7.344295
v -1.153356 1.587723 -8.421855
vn -0.9629 0.2660 0.0459
vn 0.1422 0.9859 -0.0877
vn 0.3577 -0.1943 -0.9134
vn 0.9627 -0.2662 -0.0482
vn 0.2424 0.9690 -0.0483
vn 0.2221 0.9640 -0.1460
vn -0.9557 0.2713 0.1142
vn 0.6366 -0.0910 0.7658
vn -0.6500 0.0959 -0.7538
vn -0.2534 0.1702 0.9523
vn 0.6223 -0.0858 0.7781
vn 0.3038 -0.1820 -0.9352
vn 0.3159 0.9430 -0.1049
vn -0.2817 -0.9429 0.1776
vn -0.3133 -0.9489 0.0383
vn -0.1681 -0.9624 0.2132
vn -0.4212 -0.8990 0.1205
vn 0.3220 0.9465 -0.0230
vn 0.3158 0.9430 -0.1048
vn -0.1886 -0.9795 -0.0709
vn 0.2461 0.9680 -0.0500
vn 0.2222 0.9638 -0.1475
vn -0.1796 -0.9788 0.0981
vn 0.3055 0.9258 -0.2225
usemtl Material
s off
f 31//1 2//1 24//1 26//1
f 35//2 30//2 29//2
f 32//3 33//3 28//3 27//3
f 1//4 32//4 27//4 25//4
f 12//5 11//5 5//5
f 9//6 7//6 6//6
f 20//7 14//7 21//7 6//7
f 22//8 17//8 9//8 5//8
f 19//9 20//9 6//9 7//9
f 14//10 13//10 12//10 21//10
f 16//4 18//4 8//4 10//4
f 21//2 5//2 6//2
f 17//1 15//1 11//1 9//1
f 18//3 19//3 7//3 8//3
f 13//11 16//11 10//11 12//11
f 15//12 22//12 5//12 11//12
f 10//13 8//13 9//13
f 14//14 22//14 15//14 13//14
f 22//15 20//15 19//15 17//15
f 16//16 13//16 15//16
f 14//17 20//17 22//17
f 10//18 11//18 12//18
f 10//19 9//19 11//19
f 19//20 18//20 17//20
f 12//21 5//21 21//21
f 9//22 6//22 5//22
f 15//23 17//23 18//23 16//23
f 7//24 9//24 8//24
f 33//9 34//9 29//9 28//9
f 23//5 24//5 30//5
f 34//7 3//7 35//7 29//7
f 26//6 28//6 29//6
f 36//8 31//8 26//8 30//8
f 4//11 1//11 25//11 23//11
f 2//12 36//12 30//12 24//12
f 25//13 27//13 26//13
f 3//14 36//14 2//14 4//14
f 36//15 34//15 33//15 31//15
f 1//16 4//16 2//16
f 3//17 34//17 36//17
f 25//18 24//18 23//18
f 25//19 26//19 24//19
f 33//20 32//20 31//20
f 23//21 30//21 35//21
f 26//22 29//22 30//22
f 2//23 31//23 32//23 1//23
f 28//24 26//24 27//24
f 49//1 38//1 42//1 44//1
f 53//2 48//2 47//2
f 50//3 51//3 46//3 45//3
f 37//4 50//4 45//4 43//4
f 51//9 52//9 47//9 46//9
f 41//5 42//5 48//5
f 52//7 39//7 53//7 47//7
f 44//6 46//6 47//6
f 54//8 49//8 44//8 48//8
f 38//12 54//12 48//12 42//12
f 43//13 45//13 44//13
f 39//14 54//14 38//14 40//14
f 54//15 52//15 51//15 49//15
f 37//16 40//16 38//16
f 39//17 52//17 54//17
f 43//18 42//18 41//18
f 43//19 44//19 42//19
f 51//20 50//20 49//20
f 41//21 48//21 53//21
f 44//22 47//22 48//22
f 38//23 49//23 50//23 37//23
f 46//24 44//24 45//24
f 67//1 56//1 60//1 62//1
f 71//2 66//2 65//2
f 68//3 69//3 64//3 63//3
f 55//4 68//4 63//4 61//4
f 69//9 70//9 65//9 64//9
f 59//5 60//5 66//5
f 70//7 57//7 71//7 65//7
f 62//6 64//6 65//6
f 72//8 67//8 62//8 66//8
f 58//11 55//11 61//11 59//11
f 56//12 72//12 66//12 60//12
f 61//13 63//13 62//13
f 57//14 72//14 56//14 58//14
f 72//15 70//15 69//15 67//15
f 55//16 58//16 56//16
f 57//17 70//17 72//17
f 61//18 60//18 59//18
f 69//20 68//20 67//20
f 59//21 66//21 71//21
f 62//22 65//22 66//22
f 56//23 67//23 68//23 55//23
f 64//24 62//24 63//24
